REM DISCID CE0AD30E
REM COMMENT "ExactAudioCopy v1.1"
PERFORMER "Unknown Artist"
TITLE "Unknown Title"
FILE "soup.wav" WAVE
  TRACK 01 AUDIO
    TITLE "Track01"
    PERFORMER "Unknown Artist"
    INDEX 00 00:00:00
    INDEX 01 02:10:00
  TRACK 02 AUDIO
    TITLE "Track02"
    PERFORMER "Unknown Artist"
    INDEX 00 05:40:70
    INDEX 01 05:41:00
  TRACK 03 AUDIO
    TITLE "Track03"
    PERFORMER "Unknown Artist"
    INDEX 00 09:41:17
    INDEX 01 09:41:30
  TRACK 04 AUDIO
    TITLE "Track04"
    PERFORMER "Unknown Artist"
    INDEX 00 12:56:22
    INDEX 01 12:57:02
  TRACK 05 AUDIO
    TITLE "Track05"
    PERFORMER "Unknown Artist"
    INDEX 00 14:54:42
    INDEX 01 14:55:00
  TRACK 06 AUDIO
    TITLE "Track06"
    PERFORMER "Unknown Artist"
    INDEX 00 18:00:10
    INDEX 01 18:02:10
  TRACK 07 AUDIO
    TITLE "Track07"
    PERFORMER "Unknown Artist"
    INDEX 00 20:49:27
    INDEX 01 20:49:70
  TRACK 08 AUDIO
    TITLE "Track08"
    PERFORMER "Unknown Artist"
    INDEX 00 24:30:55
    INDEX 01 24:30:62
  TRACK 09 AUDIO
    TITLE "Track09"
    PERFORMER "Unknown Artist"
    INDEX 00 27:13:47
    INDEX 01 27:13:60
  TRACK 10 AUDIO
    TITLE "Track10"
    PERFORMER "Unknown Artist"
    INDEX 00 29:43:30
    INDEX 01 29:44:22
  TRACK 11 AUDIO
    TITLE "Track11"
    PERFORMER "Unknown Artist"
    INDEX 00 33:20:52
    INDEX 01 33:21:42
  TRACK 12 AUDIO
    TITLE "Track12"
    PERFORMER "Unknown Artist"
    INDEX 00 37:32:55
    INDEX 01 37:33:55
  TRACK 13 AUDIO
    TITLE "Track13"
    PERFORMER "Unknown Artist"
    INDEX 00 41:08:35
    INDEX 01 41:09:10
  TRACK 14 AUDIO
    TITLE "Track14"
    PERFORMER "Unknown Artist"
    INDEX 00 44:42:30
    INDEX 01 44:43:70
